<?xml version="1.0" encoding="UTF-8"?>
<svg width="34px" height="34px" viewBox="0 0 34 34" version="1.1" xmlns="http://www.w3.org/2000/svg" xmlns:xlink="http://www.w3.org/1999/xlink">
    <!-- Generator: Sketch 63.1 (92452) - https://sketch.com -->
    <title>发货保障</title>
    <desc>Created with Sketch.</desc>
    <g id="页面-1" stroke="none" stroke-width="1" fill="none" fill-rule="evenodd">
        <g id="index-7.20" transform="translate(-1399.000000, -3874.000000)" fill-rule="nonzero">
            <g id="优势" transform="translate(0.000000, 3310.000000)">
                <g id="编组-49" transform="translate(960.000000, 68.000000)">
                    <g id="编组-47" transform="translate(339.000000, 495.000000)">
                        <g id="发货保障" transform="translate(99.000000, 0.000000)">
                            <rect id="矩形" fill="#000000" opacity="0" x="0" y="0" width="36" height="36"></rect>
                            <path d="M17.9842389,1 C17.892179,1 8.75370827,1.02471053 1,3.0853559 L1,17.96519 L1,17.9836197 C1.01415399,18.1768218 1.26288106,21.1028663 3.38642328,24.587404 C4.67467312,26.7018935 6.38919424,28.5957871 8.48221687,30.2182777 C11.0831027,32.2348983 14.2796065,33.834772 17.9842095,34.9732843 C21.6779904,33.8369246 24.8670634,32.2442458 27.4633197,30.2363536 C29.5550744,28.6188463 31.2699494,26.7298772 32.5608236,24.6226415 C34.6983429,21.1311743 34.9539995,18.1733422 34.9684484,17.9834133 L34.9684484,17.9649836 L34.9684484,3.0853559 C27.214976,1.02471053 18.0766528,1 17.9842389,1 Z M31.3536349,23.8832425 C30.1525501,25.8441907 28.5522931,27.6050367 26.5972719,29.1166543 C24.2355592,30.9433458 21.3393855,32.4134156 17.9839146,33.4897093 C14.6213961,32.4119413 11.7184699,30.9362689 9.34950318,29.0996695 C7.39218202,27.5823018 5.79260314,25.8163839 4.59511584,23.8508357 C3.49328597,22.0428098 2.94304923,20.4176653 2.67087963,19.3204059 L4.06313188,19.3204059 L4.06313188,16.4948843 L2.41554737,16.4948843 L2.41554737,4.18845373 C8.01251053,2.85246364 14.1237062,2.5230293 16.7129149,2.44196816 L16.7129149,3.82847033 L19.5384365,3.82847033 L19.5384365,2.45134518 C22.2694507,2.54712059 28.1507323,2.89887696 33.552901,4.18845373 L33.552901,16.4695251 L32.1868926,16.4695251 L32.1868926,19.2950467 L33.3013136,19.2950467 C33.02823,20.402951 32.4725086,22.0556663 31.3536349,23.8832425 Z M17.4112084,7.28130902 L15.9970764,7.28130902 L15.9970764,20.0203212 L28.732727,20.0203212 L28.732727,18.5751979 L17.4112084,18.5751979 L17.4112084,7.28130902 Z" id="形状" fill="#FFFFFF"></path>
                        </g>
                    </g>
                </g>
            </g>
        </g>
    </g>
</svg>